<svg width="377" height="27" viewBox="0 0 377 27" fill="none" xmlns="http://www.w3.org/2000/svg">
<path d="M11.728 26L6.8 17.296H4.688V26H0.208V3.664H8.592C10.32 3.664 11.792 3.97333 13.008 4.592C14.224 5.18933 15.1307 6.01067 15.728 7.056C16.3467 8.08 16.656 9.232 16.656 10.512C16.656 11.984 16.2293 13.3173 15.376 14.512C14.5227 15.6853 13.2533 16.496 11.568 16.944L16.912 26H11.728ZM4.688 13.936H8.432C9.648 13.936 10.5547 13.648 11.152 13.072C11.7493 12.4747 12.048 11.6533 12.048 10.608C12.048 9.584 11.7493 8.79467 11.152 8.24C10.5547 7.664 9.648 7.376 8.432 7.376H4.688V13.936ZM39.108 16.752C39.108 17.392 39.0653 17.968 38.98 18.48H26.02C26.1267 19.76 26.5747 20.7627 27.364 21.488C28.1533 22.2133 29.124 22.576 30.276 22.576C31.94 22.576 33.124 21.8613 33.828 20.432H38.66C38.148 22.1387 37.1667 23.5467 35.716 24.656C34.2653 25.744 32.484 26.288 30.372 26.288C28.6653 26.288 27.1293 25.9147 25.764 25.168C24.42 24.4 23.364 23.3227 22.596 21.936C21.8493 20.5493 21.476 18.9493 21.476 17.136C21.476 15.3013 21.8493 13.6907 22.596 12.304C23.3427 10.9173 24.388 9.85067 25.732 9.104C27.076 8.35733 28.6227 7.984 30.372 7.984C32.0573 7.984 33.5613 8.34667 34.884 9.072C36.228 9.79733 37.2627 10.832 37.988 12.176C38.7347 13.4987 39.108 15.024 39.108 16.752ZM34.468 15.472C34.4467 14.32 34.0307 13.4027 33.22 12.72C32.4093 12.016 31.4173 11.664 30.244 11.664C29.1347 11.664 28.196 12.0053 27.428 12.688C26.6813 13.3493 26.2227 14.2773 26.052 15.472H34.468ZM43.146 17.136C43.146 15.3013 43.5193 13.7013 44.266 12.336C45.0127 10.9493 46.0473 9.88267 47.37 9.136C48.6927 8.368 50.2073 7.984 51.914 7.984C54.1113 7.984 55.9247 8.53867 57.354 9.648C58.8047 10.736 59.7753 12.272 60.266 14.256H55.434C55.178 13.488 54.7407 12.8907 54.122 12.464C53.5247 12.016 52.778 11.792 51.882 11.792C50.602 11.792 49.5887 12.2613 48.842 13.2C48.0953 14.1173 47.722 15.4293 47.722 17.136C47.722 18.8213 48.0953 20.1333 48.842 21.072C49.5887 21.9893 50.602 22.448 51.882 22.448C53.6953 22.448 54.8793 21.6373 55.434 20.016H60.266C59.7753 21.936 58.8047 23.4613 57.354 24.592C55.9033 25.7227 54.09 26.288 51.914 26.288C50.2073 26.288 48.6927 25.9147 47.37 25.168C46.0473 24.4 45.0127 23.3333 44.266 21.968C43.5193 20.5813 43.146 18.9707 43.146 17.136ZM81.948 16.752C81.948 17.392 81.9053 17.968 81.82 18.48H68.86C68.9667 19.76 69.4147 20.7627 70.204 21.488C70.9933 22.2133 71.964 22.576 73.116 22.576C74.78 22.576 75.964 21.8613 76.668 20.432H81.5C80.988 22.1387 80.0067 23.5467 78.556 24.656C77.1053 25.744 75.324 26.288 73.212 26.288C71.5053 26.288 69.9693 25.9147 68.604 25.168C67.26 24.4 66.204 23.3227 65.436 21.936C64.6893 20.5493 64.316 18.9493 64.316 17.136C64.316 15.3013 64.6893 13.6907 65.436 12.304C66.1827 10.9173 67.228 9.85067 68.572 9.104C69.916 8.35733 71.4627 7.984 73.212 7.984C74.8973 7.984 76.4013 8.34667 77.724 9.072C79.068 9.79733 80.1027 10.832 80.828 12.176C81.5747 13.4987 81.948 15.024 81.948 16.752ZM77.308 15.472C77.2867 14.32 76.8707 13.4027 76.06 12.72C75.2493 12.016 74.2573 11.664 73.084 11.664C71.9747 11.664 71.036 12.0053 70.268 12.688C69.5213 13.3493 69.0627 14.2773 68.892 15.472H77.308ZM96.962 8.016C99.074 8.016 100.781 8.688 102.082 10.032C103.383 11.3547 104.034 13.2107 104.034 15.6V26H99.554V16.208C99.554 14.8 99.202 13.7227 98.498 12.976C97.794 12.208 96.834 11.824 95.618 11.824C94.3807 11.824 93.3993 12.208 92.674 12.976C91.97 13.7227 91.618 14.8 91.618 16.208V26H87.138V8.272H91.618V10.48C92.2153 9.712 92.9727 9.11467 93.89 8.688C94.8287 8.24 95.8527 8.016 96.962 8.016ZM115.43 11.952V20.528C115.43 21.1253 115.569 21.5627 115.846 21.84C116.145 22.096 116.636 22.224 117.318 22.224H119.398V26H116.582C112.806 26 110.918 24.1653 110.918 20.496V11.952H108.806V8.272H110.918V3.888H115.43V8.272H119.398V11.952H115.43ZM132.998 14.8C132.998 12.6027 133.488 10.64 134.47 8.912C135.472 7.16267 136.827 5.808 138.534 4.848C140.262 3.86667 142.192 3.376 144.326 3.376C146.822 3.376 149.008 4.016 150.886 5.296C152.763 6.576 154.075 8.34667 154.822 10.608H149.67C149.158 9.54133 148.432 8.74133 147.494 8.208C146.576 7.67467 145.51 7.408 144.294 7.408C142.992 7.408 141.83 7.71733 140.806 8.336C139.803 8.93333 139.014 9.78667 138.438 10.896C137.883 12.0053 137.606 13.3067 137.606 14.8C137.606 16.272 137.883 17.5733 138.438 18.704C139.014 19.8133 139.803 20.6773 140.806 21.296C141.83 21.8933 142.992 22.192 144.294 22.192C145.51 22.192 146.576 21.9253 147.494 21.392C148.432 20.8373 149.158 20.0267 149.67 18.96H154.822C154.075 21.2427 152.763 23.024 150.886 24.304C149.03 25.5627 146.843 26.192 144.326 26.192C142.192 26.192 140.262 25.712 138.534 24.752C136.827 23.7707 135.472 22.416 134.47 20.688C133.488 18.96 132.998 16.9973 132.998 14.8ZM168.44 26.288C166.733 26.288 165.197 25.9147 163.832 25.168C162.467 24.4 161.389 23.3227 160.6 21.936C159.832 20.5493 159.448 18.9493 159.448 17.136C159.448 15.3227 159.843 13.7227 160.632 12.336C161.443 10.9493 162.541 9.88267 163.928 9.136C165.315 8.368 166.861 7.984 168.568 7.984C170.275 7.984 171.821 8.368 173.208 9.136C174.595 9.88267 175.683 10.9493 176.472 12.336C177.283 13.7227 177.688 15.3227 177.688 17.136C177.688 18.9493 177.272 20.5493 176.44 21.936C175.629 23.3227 174.52 24.4 173.112 25.168C171.725 25.9147 170.168 26.288 168.44 26.288ZM168.44 22.384C169.251 22.384 170.008 22.192 170.712 21.808C171.437 21.4027 172.013 20.8053 172.44 20.016C172.867 19.2267 173.08 18.2667 173.08 17.136C173.08 15.4507 172.632 14.16 171.736 13.264C170.861 12.3467 169.784 11.888 168.504 11.888C167.224 11.888 166.147 12.3467 165.272 13.264C164.419 14.16 163.992 15.4507 163.992 17.136C163.992 18.8213 164.408 20.1227 165.24 21.04C166.093 21.936 167.16 22.384 168.44 22.384ZM192.718 8.016C194.83 8.016 196.537 8.688 197.838 10.032C199.14 11.3547 199.79 13.2107 199.79 15.6V26H195.31V16.208C195.31 14.8 194.958 13.7227 194.254 12.976C193.55 12.208 192.59 11.824 191.374 11.824C190.137 11.824 189.156 12.208 188.43 12.976C187.726 13.7227 187.374 14.8 187.374 16.208V26H182.894V8.272H187.374V10.48C187.972 9.712 188.729 9.11467 189.646 8.688C190.585 8.24 191.609 8.016 192.718 8.016ZM211.186 11.952V20.528C211.186 21.1253 211.325 21.5627 211.602 21.84C211.901 22.096 212.392 22.224 213.074 22.224H215.154V26H212.338C208.562 26 206.674 24.1653 206.674 20.496V11.952H204.562V8.272H206.674V3.888H211.186V8.272H215.154V11.952H211.186ZM224.777 11.024C225.353 10.0853 226.099 9.34933 227.017 8.816C227.955 8.28267 229.022 8.016 230.217 8.016V12.72H229.033C227.625 12.72 226.558 13.0507 225.833 13.712C225.129 14.3733 224.777 15.5253 224.777 17.168V26H220.297V8.272H224.777V11.024ZM237.426 6.16C236.637 6.16 235.976 5.91467 235.442 5.424C234.93 4.912 234.674 4.28267 234.674 3.536C234.674 2.78933 234.93 2.17067 235.442 1.68C235.976 1.168 236.637 0.911999 237.426 0.911999C238.216 0.911999 238.866 1.168 239.378 1.68C239.912 2.17067 240.178 2.78933 240.178 3.536C240.178 4.28267 239.912 4.912 239.378 5.424C238.866 5.91467 238.216 6.16 237.426 6.16ZM239.634 8.272V26H235.154V8.272H239.634ZM250.461 10.864C251.037 10.0107 251.826 9.31733 252.829 8.784C253.853 8.25067 255.015 7.984 256.317 7.984C257.831 7.984 259.197 8.35733 260.413 9.104C261.65 9.85067 262.621 10.9173 263.325 12.304C264.05 13.6693 264.413 15.2587 264.413 17.072C264.413 18.8853 264.05 20.496 263.325 21.904C262.621 23.2907 261.65 24.368 260.413 25.136C259.197 25.904 257.831 26.288 256.317 26.288C254.994 26.288 253.831 26.032 252.829 25.52C251.847 24.9867 251.058 24.304 250.461 23.472V26H245.981V2.32H250.461V10.864ZM259.837 17.072C259.837 16.0053 259.613 15.088 259.165 14.32C258.738 13.5307 258.162 12.9333 257.437 12.528C256.733 12.1227 255.965 11.92 255.133 11.92C254.322 11.92 253.554 12.1333 252.829 12.56C252.125 12.9653 251.549 13.5627 251.101 14.352C250.674 15.1413 250.461 16.0693 250.461 17.136C250.461 18.2027 250.674 19.1307 251.101 19.92C251.549 20.7093 252.125 21.3173 252.829 21.744C253.554 22.1493 254.322 22.352 255.133 22.352C255.965 22.352 256.733 22.1387 257.437 21.712C258.162 21.2853 258.738 20.6773 259.165 19.888C259.613 19.0987 259.837 18.16 259.837 17.072ZM286.324 8.272V26H281.812V23.76C281.236 24.528 280.479 25.136 279.54 25.584C278.623 26.0107 277.62 26.224 276.532 26.224C275.145 26.224 273.919 25.936 272.852 25.36C271.785 24.7627 270.943 23.8987 270.324 22.768C269.727 21.616 269.428 20.2507 269.428 18.672V8.272H273.908V18.032C273.908 19.44 274.26 20.528 274.964 21.296C275.668 22.0427 276.628 22.416 277.844 22.416C279.081 22.416 280.052 22.0427 280.756 21.296C281.46 20.528 281.812 19.44 281.812 18.032V8.272H286.324ZM297.88 11.952V20.528C297.88 21.1253 298.019 21.5627 298.296 21.84C298.595 22.096 299.086 22.224 299.768 22.224H301.848V26H299.032C295.256 26 293.368 24.1653 293.368 20.496V11.952H291.256V8.272H293.368V3.888H297.88V8.272H301.848V11.952H297.88ZM309.263 6.16C308.473 6.16 307.812 5.91467 307.279 5.424C306.767 4.912 306.511 4.28267 306.511 3.536C306.511 2.78933 306.767 2.17067 307.279 1.68C307.812 1.168 308.473 0.911999 309.263 0.911999C310.052 0.911999 310.703 1.168 311.215 1.68C311.748 2.17067 312.015 2.78933 312.015 3.536C312.015 4.28267 311.748 4.912 311.215 5.424C310.703 5.91467 310.052 6.16 309.263 6.16ZM311.471 8.272V26H306.991V8.272H311.471ZM325.689 26.288C323.982 26.288 322.446 25.9147 321.081 25.168C319.715 24.4 318.638 23.3227 317.849 21.936C317.081 20.5493 316.697 18.9493 316.697 17.136C316.697 15.3227 317.091 13.7227 317.881 12.336C318.691 10.9493 319.79 9.88267 321.177 9.136C322.563 8.368 324.11 7.984 325.817 7.984C327.523 7.984 329.07 8.368 330.457 9.136C331.843 9.88267 332.931 10.9493 333.721 12.336C334.531 13.7227 334.937 15.3227 334.937 17.136C334.937 18.9493 334.521 20.5493 333.689 21.936C332.878 23.3227 331.769 24.4 330.361 25.168C328.974 25.9147 327.417 26.288 325.689 26.288ZM325.689 22.384C326.499 22.384 327.257 22.192 327.961 21.808C328.686 21.4027 329.262 20.8053 329.689 20.016C330.115 19.2267 330.329 18.2667 330.329 17.136C330.329 15.4507 329.881 14.16 328.985 13.264C328.11 12.3467 327.033 11.888 325.753 11.888C324.473 11.888 323.395 12.3467 322.521 13.264C321.667 14.16 321.241 15.4507 321.241 17.136C321.241 18.8213 321.657 20.1227 322.489 21.04C323.342 21.936 324.409 22.384 325.689 22.384ZM349.967 8.016C352.079 8.016 353.786 8.688 355.087 10.032C356.388 11.3547 357.039 13.2107 357.039 15.6V26H352.559V16.208C352.559 14.8 352.207 13.7227 351.503 12.976C350.799 12.208 349.839 11.824 348.623 11.824C347.386 11.824 346.404 12.208 345.679 12.976C344.975 13.7227 344.623 14.8 344.623 16.208V26H340.143V8.272H344.623V10.48C345.22 9.712 345.978 9.11467 346.895 8.688C347.834 8.24 348.858 8.016 349.967 8.016ZM370.003 26.288C368.553 26.288 367.251 26.032 366.099 25.52C364.947 24.9867 364.03 24.272 363.347 23.376C362.686 22.48 362.323 21.488 362.259 20.4H366.771C366.857 21.0827 367.187 21.648 367.763 22.096C368.361 22.544 369.097 22.768 369.971 22.768C370.825 22.768 371.486 22.5973 371.955 22.256C372.446 21.9147 372.691 21.4773 372.691 20.944C372.691 20.368 372.393 19.9413 371.795 19.664C371.219 19.3653 370.291 19.0453 369.011 18.704C367.689 18.384 366.601 18.0533 365.747 17.712C364.915 17.3707 364.19 16.848 363.571 16.144C362.974 15.44 362.675 14.4907 362.675 13.296C362.675 12.3147 362.953 11.4187 363.507 10.608C364.083 9.79733 364.894 9.15733 365.939 8.688C367.006 8.21867 368.254 7.984 369.683 7.984C371.795 7.984 373.481 8.51733 374.739 9.584C375.998 10.6293 376.691 12.048 376.819 13.84H372.531C372.467 13.136 372.169 12.5813 371.635 12.176C371.123 11.7493 370.43 11.536 369.555 11.536C368.745 11.536 368.115 11.6853 367.667 11.984C367.241 12.2827 367.027 12.6987 367.027 13.232C367.027 13.8293 367.326 14.288 367.923 14.608C368.521 14.9067 369.449 15.216 370.707 15.536C371.987 15.856 373.043 16.1867 373.875 16.528C374.707 16.8693 375.422 17.4027 376.019 18.128C376.638 18.832 376.958 19.7707 376.979 20.944C376.979 21.968 376.691 22.8853 376.115 23.696C375.561 24.5067 374.75 25.1467 373.683 25.616C372.638 26.064 371.411 26.288 370.003 26.288Z" fill="#333333"/>
</svg>
