<svg width="282" height="35" viewBox="0 0 282 35" fill="none" xmlns="http://www.w3.org/2000/svg">
<path d="M21.3007 35L18.0237 30.0899C17.0994 30.2578 16.1611 30.3417 15.2088 30.3417C12.4359 30.3417 9.8871 29.6982 7.56237 28.4113C5.23764 27.0963 3.38906 25.2918 2.01663 22.9976C0.672211 20.6755 0 18.0596 0 15.1499C0 12.2402 0.672211 9.63829 2.01663 7.34413C3.38906 5.02198 5.23764 3.21743 7.56237 1.93045C9.8871 0.643484 12.4359 0 15.2088 0C18.0096 0 20.5584 0.643484 22.8552 1.93045C25.1799 3.21743 27.0145 5.02198 28.3589 7.34413C29.7033 9.63829 30.3755 12.2402 30.3755 15.1499C30.3755 17.5839 29.8854 19.8361 28.9051 21.9065C27.9248 23.9488 26.5803 25.6555 24.8718 27.0264L31.1318 35H21.3007ZM8.40264 15.1499C8.40264 17.472 9.00482 19.3185 10.2092 20.6894C11.4136 22.0324 13.0801 22.7038 15.2088 22.7038C17.3094 22.7038 18.9619 22.0184 20.1663 20.6475C21.3987 19.2766 22.0149 17.444 22.0149 15.1499C22.0149 12.7998 21.3987 10.9532 20.1663 9.61031C18.9619 8.23941 17.3094 7.55396 15.2088 7.55396C13.0801 7.55396 11.4136 8.23941 10.2092 9.61031C9.00482 10.9532 8.40264 12.7998 8.40264 15.1499Z" fill="#555555"/>
<path d="M42.1848 0.461629V17.6259C42.1848 19.2206 42.549 20.4516 43.2772 21.3189C44.0334 22.1863 45.1678 22.6199 46.6802 22.6199C48.1927 22.6199 49.3271 22.1863 50.0833 21.3189C50.8676 20.4237 51.2597 19.1926 51.2597 17.6259V0.461629H59.4943V17.6259C59.4943 20.3397 58.9201 22.6619 57.7717 24.5923C56.6234 26.4948 55.0549 27.9357 53.0663 28.9149C51.1056 29.8661 48.921 30.3417 46.5122 30.3417C44.1034 30.3417 41.9468 29.8661 40.0422 28.9149C38.1656 27.9357 36.6811 26.4948 35.5888 24.5923C34.5244 22.6898 33.9923 20.3677 33.9923 17.6259V0.461629H42.1848Z" fill="#555555"/>
<path d="M72.2627 0.461629V30.048H64.0281V0.461629H72.2627Z" fill="#555555"/>
<path d="M75.9437 15.1918C75.9437 12.2822 76.5459 9.69424 77.7503 7.42806C78.9827 5.13389 80.7192 3.35731 82.9599 2.09832C85.2006 0.811351 87.7775 0.167865 90.6904 0.167865C94.3875 0.167865 97.4965 1.16107 100.017 3.14748C102.538 5.10591 104.163 7.77778 104.891 11.1631H96.026C95.4939 10.044 94.7516 9.19065 93.7993 8.60312C92.875 8.01559 91.7967 7.72182 90.5643 7.72182C88.6597 7.72182 87.1333 8.40727 85.9849 9.77818C84.8645 11.1211 84.3044 12.9257 84.3044 15.1918C84.3044 17.486 84.8645 19.3185 85.9849 20.6894C87.1333 22.0324 88.6597 22.7038 90.5643 22.7038C91.7967 22.7038 92.875 22.4101 93.7993 21.8225C94.7516 21.235 95.4939 20.3817 96.026 19.2626H104.891C104.163 22.6479 102.538 25.3337 100.017 27.3201C97.4965 29.2786 94.3875 30.2578 90.6904 30.2578C87.7775 30.2578 85.2006 29.6283 82.9599 28.3693C80.7192 27.0823 78.9827 25.3058 77.7503 23.0396C76.5459 20.7454 75.9437 18.1295 75.9437 15.1918Z" fill="#555555"/>
<path d="M126.31 30.048L117.025 17.0803V30.048H108.79V0.461629H117.025V13.2194L126.226 0.461629H135.721L124.839 14.8141L136.267 30.048H126.31Z" fill="#555555"/>
<path d="M167.398 0.461629V7.00839H155.551V12.2122H164.289V18.4652H155.551V30.048H147.316V0.461629H167.398Z" fill="#555555"/>
<path d="M189.604 25.2218H179.101L177.504 30.048H168.85L179.647 0.461629H189.142L199.897 30.048H191.201L189.604 25.2218ZM187.546 18.9269L184.353 9.35851L181.202 18.9269H187.546Z" fill="#555555"/>
<path d="M201.573 15.1918C201.573 12.2822 202.175 9.69424 203.38 7.42806C204.612 5.13389 206.348 3.35731 208.589 2.09832C210.83 0.811351 213.407 0.167865 216.32 0.167865C220.017 0.167865 223.126 1.16107 225.647 3.14748C228.167 5.10591 229.792 7.77778 230.52 11.1631H221.655C221.123 10.044 220.381 9.19065 219.429 8.60312C218.504 8.01559 217.426 7.72182 216.194 7.72182C214.289 7.72182 212.763 8.40727 211.614 9.77818C210.494 11.1211 209.934 12.9257 209.934 15.1918C209.934 17.486 210.494 19.3185 211.614 20.6894C212.763 22.0324 214.289 22.7038 216.194 22.7038C217.426 22.7038 218.504 22.4101 219.429 21.8225C220.381 21.235 221.123 20.3817 221.655 19.2626H230.52C229.792 22.6479 228.167 25.3337 225.647 27.3201C223.126 29.2786 220.017 30.2578 216.32 30.2578C213.407 30.2578 210.83 29.6283 208.589 28.3693C206.348 27.0823 204.612 25.3058 203.38 23.0396C202.175 20.7454 201.573 18.1295 201.573 15.1918Z" fill="#555555"/>
<path d="M256.728 0.461629V7.00839H248.83V30.048H240.595V7.00839H232.781V0.461629H256.728Z" fill="#555555"/>
<path d="M270.951 30.3417C267.505 30.3417 264.677 29.5304 262.464 27.9077C260.251 26.257 259.061 23.9069 258.893 20.8573H267.673C267.758 21.8925 268.066 22.6479 268.598 23.1235C269.13 23.5991 269.816 23.8369 270.656 23.8369C271.413 23.8369 272.029 23.6551 272.505 23.2914C273.009 22.8997 273.261 22.3681 273.261 21.6966C273.261 20.8293 272.855 20.1579 272.043 19.6823C271.231 19.2066 269.914 18.6751 268.094 18.0875C266.161 17.444 264.593 16.8285 263.388 16.241C262.212 15.6255 261.175 14.7442 260.279 13.5971C259.411 12.4221 258.977 10.8973 258.977 9.02278C258.977 7.1203 259.453 5.4976 260.405 4.15468C261.358 2.78377 262.674 1.7486 264.354 1.04916C266.035 0.34972 267.94 0 270.068 0C273.513 0 276.258 0.811351 278.303 2.43405C280.375 4.02878 281.482 6.28097 281.622 9.19065H272.673C272.645 8.29536 272.365 7.6239 271.833 7.17626C271.329 6.72862 270.67 6.50479 269.858 6.50479C269.242 6.50479 268.738 6.68665 268.346 7.05036C267.954 7.41407 267.758 7.93165 267.758 8.60312C267.758 9.16267 267.968 9.65228 268.388 10.0719C268.836 10.4636 269.382 10.8133 270.026 11.1211C270.67 11.4009 271.623 11.7646 272.883 12.2122C274.76 12.8557 276.3 13.4992 277.505 14.1427C278.737 14.7582 279.787 15.6395 280.656 16.7866C281.552 17.9057 282 19.3325 282 21.0671C282 22.8297 281.552 24.4105 280.656 25.8094C279.787 27.2082 278.513 28.3133 276.832 29.1247C275.18 29.9361 273.219 30.3417 270.951 30.3417Z" fill="#555555"/>
</svg>
