<svg width="665" height="35" viewBox="0 0 665 35" fill="none" xmlns="http://www.w3.org/2000/svg">
<path d="M43.4044 2.05608L33.9768 34.6262H29.2163L21.6555 8.41121L13.8147 34.6262L9.10092 34.6729L0 2.05608H4.52713L11.6212 29.6729L19.462 2.05608H24.2225L31.6899 29.5794L38.8306 2.05608H43.4044Z" fill="#555555"/>
<path d="M73.1148 2.05608V34.6262H68.8677V19.8598H52.2993V34.6262H48.0522V2.05608H52.2993V16.3551H68.8677V2.05608H73.1148Z" fill="#555555"/>
<path d="M103.142 2.05608L92.5479 22.3365V34.6262H88.3008V22.3365L77.6598 2.05608H82.3736L90.401 18.5514L98.4285 2.05608H103.142Z" fill="#555555"/>
<path d="M124.312 2.05608V34.6262H120.065V2.05608H124.312Z" fill="#555555"/>
<path d="M151.572 2.05608V5.51402H142.705V34.6262H138.458V5.51402H129.543V2.05608H151.572Z" fill="#555555"/>
<path d="M173.49 2.05608V34.6262H169.243V2.05608H173.49Z" fill="#555555"/>
<path d="M191.043 34.9533C188.896 34.9533 186.967 34.5794 185.256 33.8318C183.575 33.053 182.253 31.9938 181.288 30.6542C180.324 29.2835 179.826 27.7103 179.795 25.9346H184.322C184.478 27.4611 185.1 28.7539 186.189 29.8131C187.309 30.8411 188.927 31.3551 191.043 31.3551C193.065 31.3551 194.652 30.8567 195.803 29.8598C196.986 28.8318 197.577 27.5234 197.577 25.9346C197.577 24.6885 197.235 23.676 196.55 22.8972C195.866 22.1184 195.01 21.5265 193.983 21.1215C192.956 20.7165 191.572 20.2804 189.829 19.8131C187.682 19.2523 185.956 18.6916 184.649 18.1308C183.373 17.5701 182.269 16.6978 181.335 15.514C180.433 14.2991 179.982 12.6791 179.982 10.6542C179.982 8.87851 180.433 7.3053 181.335 5.93458C182.237 4.56386 183.498 3.50467 185.116 2.75701C186.765 2.00935 188.647 1.63551 190.763 1.63551C193.812 1.63551 196.301 2.39875 198.23 3.92524C200.19 5.45171 201.295 7.47664 201.544 10H196.877C196.721 8.7539 196.068 7.66355 194.917 6.72897C193.765 5.76324 192.241 5.28038 190.343 5.28038C188.569 5.28038 187.122 5.74766 186.002 6.68224C184.882 7.58567 184.322 8.86293 184.322 10.514C184.322 11.6978 184.649 12.6636 185.302 13.4112C185.987 14.1589 186.811 14.7352 187.776 15.1402C188.771 15.514 190.156 15.9502 191.93 16.4486C194.076 17.0405 195.803 17.6324 197.11 18.2243C198.417 18.785 199.537 19.6729 200.47 20.8879C201.404 22.0717 201.871 23.6916 201.871 25.7477C201.871 27.3364 201.451 28.8318 200.61 30.2336C199.77 31.6355 198.526 32.7726 196.877 33.6449C195.228 34.5171 193.283 34.9533 191.043 34.9533Z" fill="#555555"/>
<path d="M243.432 1.82243V8.2243H234.751V34.6262H226.77V8.2243H218.09V1.82243H243.432Z" fill="#555555"/>
<path d="M255.418 1.82243V34.6262H247.438V1.82243H255.418Z" fill="#555555"/>
<path d="M298.306 1.82243V34.6262H290.325V14.9533L282.997 34.6262H276.557L269.183 14.9065V34.6262H261.202V1.82243H270.63L279.824 24.5327L288.925 1.82243H298.306Z" fill="#555555"/>
<path d="M312.026 8.2243V14.8598H322.713V21.028H312.026V28.2243H324.114V34.6262H304.045V1.82243H324.114V8.2243H312.026Z" fill="#555555"/>
<path d="M362.46 2.05608V5.51402H353.592V34.6262H349.345V5.51402H340.431V2.05608H362.46Z" fill="#555555"/>
<path d="M382.436 34.9533C379.418 34.9533 376.664 34.2523 374.175 32.8505C371.686 31.4174 369.71 29.4393 368.248 26.9159C366.816 24.3614 366.101 21.4953 366.101 18.3178C366.101 15.1402 366.816 12.2897 368.248 9.76636C369.71 7.21184 371.686 5.23365 374.175 3.83178C376.664 2.39876 379.418 1.68224 382.436 1.68224C385.485 1.68224 388.254 2.39876 390.743 3.83178C393.232 5.23365 395.193 7.19626 396.624 9.71963C398.055 12.243 398.771 15.109 398.771 18.3178C398.771 21.5265 398.055 24.3925 396.624 26.9159C395.193 29.4393 393.232 31.4174 390.743 32.8505C388.254 34.2523 385.485 34.9533 382.436 34.9533ZM382.436 31.2617C384.707 31.2617 386.745 30.7321 388.55 29.6729C390.385 28.6137 391.817 27.1028 392.843 25.1402C393.901 23.1776 394.43 20.9034 394.43 18.3178C394.43 15.7009 393.901 13.4268 392.843 11.4953C391.817 9.53271 390.401 8.02181 388.596 6.96262C386.792 5.90343 384.738 5.37383 382.436 5.37383C380.133 5.37383 378.08 5.90343 376.275 6.96262C374.47 8.02181 373.039 9.53271 371.981 11.4953C370.954 13.4268 370.441 15.7009 370.441 18.3178C370.441 20.9034 370.954 23.1776 371.981 25.1402C373.039 27.1028 374.47 28.6137 376.275 29.6729C378.111 30.7321 380.164 31.2617 382.436 31.2617Z" fill="#555555"/>
<path d="M436.515 28.8318H424.288L422.327 34.6262H413.973L425.828 1.82243H435.069L446.923 34.6262H438.476L436.515 28.8318ZM434.462 22.6636L430.401 10.6542L426.388 22.6636H434.462Z" fill="#555555"/>
<path d="M449.178 18.1776C449.178 14.9377 449.878 12.0561 451.278 9.53271C452.678 6.9782 454.623 5 457.112 3.59813C459.632 2.16511 462.479 1.4486 465.653 1.4486C469.542 1.4486 472.871 2.47664 475.64 4.53271C478.409 6.58879 480.261 9.39252 481.194 12.9439H472.42C471.767 11.5732 470.833 10.5296 469.62 9.81308C468.437 9.09657 467.084 8.73832 465.559 8.73832C463.101 8.73832 461.11 9.59502 459.585 11.3084C458.061 13.0218 457.298 15.3115 457.298 18.1776C457.298 21.0436 458.061 23.3333 459.585 25.0467C461.11 26.7601 463.101 27.6168 465.559 27.6168C467.084 27.6168 468.437 27.2586 469.62 26.5421C470.833 25.8255 471.767 24.7819 472.42 23.4112H481.194C480.261 26.9626 478.409 29.7664 475.64 31.8224C472.871 33.8474 469.542 34.8598 465.653 34.8598C462.479 34.8598 459.632 34.1589 457.112 32.757C454.623 31.324 452.678 29.3458 451.278 26.8224C449.878 24.2991 449.178 21.4174 449.178 18.1776Z" fill="#555555"/>
<path d="M509.651 1.82243V8.2243H500.97V34.6262H492.989V8.2243H484.308V1.82243H509.651Z" fill="#555555"/>
<path d="M552.856 34.6262H544.875L531.527 14.3925V34.6262H523.546V1.82243H531.527L544.875 22.1495V1.82243H552.856V34.6262Z" fill="#555555"/>
<path d="M574.136 34.9533C571.056 34.9533 568.224 34.2368 565.642 32.8037C563.09 31.3707 561.052 29.3769 559.528 26.8224C558.034 24.2368 557.287 21.3396 557.287 18.1308C557.287 14.9221 558.034 12.0405 559.528 9.48598C561.052 6.93146 563.09 4.9377 565.642 3.50468C568.224 2.07165 571.056 1.35514 574.136 1.35514C577.216 1.35514 580.032 2.07165 582.583 3.50468C585.166 4.9377 587.188 6.93146 588.651 9.48598C590.144 12.0405 590.891 14.9221 590.891 18.1308C590.891 21.3396 590.144 24.2368 588.651 26.8224C587.157 29.3769 585.135 31.3707 582.583 32.8037C580.032 34.2368 577.216 34.9533 574.136 34.9533ZM574.136 27.6636C576.749 27.6636 578.834 26.7913 580.39 25.0467C581.977 23.3022 582.77 20.9969 582.77 18.1308C582.77 15.2336 581.977 12.9284 580.39 11.215C578.834 9.47041 576.749 8.59813 574.136 8.59813C571.491 8.59813 569.375 9.45483 567.789 11.1682C566.233 12.8816 565.455 15.2025 565.455 18.1308C565.455 21.028 566.233 23.3489 567.789 25.0935C569.375 26.8069 571.491 27.6636 574.136 27.6636Z" fill="#555555"/>
<path d="M640.415 1.82243L631.875 34.6262H622.214L616.986 13.0374L611.573 34.6262H601.912L593.604 1.82243H602.145L606.859 25.7009L612.693 1.82243H621.467L627.067 25.7009L631.828 1.82243H640.415Z" fill="#555555"/>
<path d="M653.986 0C657.315 0 659.975 0.872275 661.966 2.61682C663.989 4.36137 665 6.82243 665 10C665 12.9284 664.035 15.2181 662.106 16.8692C660.208 18.4891 657.688 19.3146 654.546 19.3458L654.312 22.8505H647.312L647.078 14.1589H649.878C652.274 14.1589 654.094 13.8629 655.339 13.271C656.615 12.6791 657.253 11.6044 657.253 10.0467C657.253 8.95639 656.957 8.09969 656.366 7.47664C655.775 6.85358 654.95 6.54206 653.892 6.54206C652.772 6.54206 651.901 6.86916 651.279 7.52337C650.656 8.14642 650.345 9.00312 650.345 10.0935H642.831C642.769 8.19315 643.158 6.47975 643.998 4.95327C644.869 3.42679 646.145 2.22742 647.825 1.35514C649.536 0.451714 651.59 0 653.986 0ZM650.905 35C649.505 35 648.354 34.595 647.452 33.785C646.58 32.9439 646.145 31.9159 646.145 30.7009C646.145 29.4548 646.58 28.4112 647.452 27.5701C648.354 26.729 649.505 26.3084 650.905 26.3084C652.274 26.3084 653.394 26.729 654.266 27.5701C655.168 28.4112 655.619 29.4548 655.619 30.7009C655.619 31.9159 655.168 32.9439 654.266 33.785C653.394 34.595 652.274 35 650.905 35Z" fill="#555555"/>
</svg>
